<?xml version="1.0" standalone="no"?>
<!DOCTYPE svg PUBLIC "-//W3C//DTD SVG 20010904//EN"
 "http://www.w3.org/TR/2001/REC-SVG-20010904/DTD/svg10.dtd">
<svg version="1.0" xmlns="http://www.w3.org/2000/svg"
 width="677.000000pt" height="369.000000pt" viewBox="0 0 677.000000 369.000000"
 preserveAspectRatio="xMidYMid meet">

<g transform="translate(0.000000,369.000000) scale(0.100000,-0.100000)"
fill="#000000" stroke="none">
<path d="M3569 3046 c-75 -27 -120 -78 -146 -166 -13 -47 -15 -83 -8 -240 5
-102 9 -212 9 -245 l1 -60 -170 -3 c-120 -2 -171 -6 -177 -15 -12 -19 -9 -96
4 -120 12 -21 50 -159 45 -162 -1 -1 -35 -7 -75 -13 -167 -28 -299 -140 -359
-306 -29 -81 -62 -250 -52 -268 30 -56 110 -19 203 93 79 93 132 138 220 184
68 35 100 42 125 26 22 -14 -5 -80 -42 -100 -45 -24 -67 -48 -67 -74 0 -37
-171 -183 -399 -342 -123 -86 -183 -141 -274 -249 l-58 -69 7 -56 c7 -55 33
-120 57 -140 7 -5 39 -16 72 -25 33 -8 96 -25 140 -37 103 -28 285 -30 395 -6
106 24 311 128 435 222 120 91 203 171 293 284 37 46 88 106 115 134 26 27 47
56 47 63 0 8 8 26 17 41 l17 26 9 -29 c5 -16 12 -123 16 -239 6 -188 9 -214
29 -251 38 -74 143 -105 184 -56 21 25 116 269 137 355 23 88 41 210 41 273 0
69 -28 193 -57 252 -43 86 -144 161 -216 162 -25 0 -27 3 -21 23 4 12 24 37
46 56 48 41 75 92 84 159 4 30 14 58 25 68 21 19 26 83 9 115 -9 16 -22 19
-73 19 l-62 0 -17 124 c-56 395 -292 670 -509 592z m198 -75 c120 -83 212
-252 256 -471 9 -41 17 -95 19 -120 l3 -45 -286 -3 -286 -2 -9 172 c-15 290
-12 345 22 408 16 30 45 65 64 78 30 20 45 23 102 20 55 -3 74 -9 115 -37z
m431 -708 c2 -18 -4 -43 -12 -55 -9 -12 -16 -33 -16 -45 0 -12 -9 -47 -21 -77
-54 -147 -236 -192 -350 -89 -46 41 -73 89 -90 157 -9 36 -17 48 -36 52 -46
12 -70 -9 -92 -83 -23 -76 -45 -106 -109 -148 -60 -40 -156 -42 -220 -5 -55
31 -98 97 -113 171 -6 32 -18 64 -25 70 -14 12 -19 70 -7 82 3 4 250 6 547 5
l541 -3 3 -32z m-509 -162 c38 -124 130 -195 254 -195 l68 0 -6 -34 c-14 -77
-16 -78 -103 -86 -43 -3 -103 -13 -133 -22 -68 -20 -158 -74 -196 -118 l-30
-33 -11 57 c-12 59 -65 155 -109 202 -15 15 -25 29 -22 31 2 2 24 9 48 16 28
8 60 29 91 60 43 43 58 71 95 179 11 32 34 8 54 -57z m-503 -132 c24 -28 91
-58 127 -59 20 0 41 -13 73 -46 24 -26 50 -56 56 -67 11 -21 11 -21 -13 -4
-152 109 -363 115 -516 16 -60 -39 -113 -99 -181 -203 l-33 -51 7 40 c13 74
44 150 90 218 54 79 140 137 239 161 89 21 128 20 151 -5z m-6 -145 c-19 -9
-56 -22 -81 -30 -89 -27 -180 -99 -325 -257 -23 -25 -51 -50 -63 -57 -21 -11
-22 -10 -11 9 17 32 68 109 121 181 84 115 187 169 324 169 l70 0 -35 -15z
m969 -4 c52 -26 103 -88 131 -158 34 -85 39 -254 11 -380 -30 -134 -131 -400
-154 -408 -34 -11 -75 16 -97 62 -19 39 -22 65 -25 236 -4 212 -18 285 -69
372 -41 70 -93 100 -182 104 -49 3 -88 -1 -120 -12 -47 -16 -47 -16 -29 4 57
63 199 111 332 114 68 1 86 -2 110 -20 50 -36 59 -38 29 -6 -16 18 -38 34 -48
38 -21 6 -22 13 -8 48 8 21 16 26 45 26 20 0 53 -9 74 -20z m-791 -24 c95 -48
142 -122 142 -225 l0 -63 39 31 c91 72 207 97 287 62 73 -33 108 -71 66 -71
-22 0 -54 -33 -73 -75 -9 -18 -23 -31 -37 -33 -12 -2 -37 -18 -56 -36 -30 -28
-113 -59 -151 -56 -5 1 -36 2 -67 4 -67 3 -95 20 -76 45 11 14 10 14 -7 -1
-17 -14 -24 -15 -51 -3 -18 7 -36 20 -40 28 -5 7 -21 22 -36 32 -16 9 -28 24
-28 33 0 8 -11 29 -24 47 -13 17 -30 50 -36 72 -12 37 -11 44 9 72 33 47 38
94 12 120 -15 15 -18 23 -9 25 7 3 20 7 28 9 32 11 62 6 108 -17z m-168 -200
c0 -8 3 -21 6 -30 10 -27 -12 -18 -24 9 -15 33 -15 35 3 35 8 0 15 -6 15 -14z
m-29 -82 c19 -20 20 -24 6 -24 -25 0 -57 36 -57 63 0 35 14 42 22 11 4 -14 17
-37 29 -50z m60 -3 c32 -32 37 -51 14 -51 -8 0 -15 4 -15 9 0 5 -11 19 -25 32
-13 13 -25 27 -25 32 0 16 23 6 51 -22z m-107 -17 c3 -9 6 -25 6 -36 0 -11 16
-36 36 -56 19 -19 42 -48 50 -63 14 -29 60 -59 89 -59 8 0 15 -4 15 -9 0 -21
-303 -246 -398 -295 -34 -18 -44 -30 -14 -19 35 14 188 97 232 126 65 45 120
87 161 125 39 36 40 36 184 -4 37 -10 59 -12 85 -4 19 5 56 10 81 10 36 0 56
7 89 31 51 37 46 28 -37 -73 -185 -223 -487 -426 -706 -473 -152 -33 -410 -1
-459 57 -34 39 -24 62 35 79 l52 17 -57 1 c-54 1 -59 3 -83 38 -14 21 -25 47
-25 59 0 32 116 152 207 214 153 106 299 218 368 283 39 36 73 66 76 67 4 0
10 -7 13 -16z m786 7 c0 -4 -9 -20 -20 -34 -12 -14 -25 -40 -31 -57 -15 -41
-33 -39 -24 3 11 49 75 126 75 88z m-722 -56 c7 -14 23 -30 37 -35 30 -12 32
-20 4 -20 -21 0 -79 50 -79 69 0 21 27 11 38 -14z m102 -20 c32 -16 59 -55 39
-55 -6 0 -24 11 -41 25 -16 14 -36 25 -43 25 -8 0 -17 5 -20 10 -9 15 32 12
65 -5z m504 -51 c-11 -8 -34 -28 -51 -46 -39 -38 -49 -34 -23 10 23 37 83 78
89 60 2 -6 -5 -17 -15 -24z m88 -10 c-19 -36 -59 -66 -84 -62 -21 3 -20 5 15
25 20 12 42 34 49 48 7 16 15 22 21 16 5 -5 5 -16 -1 -27z m-610 -19 c17 -14
42 -25 59 -25 18 0 28 -4 24 -10 -12 -20 -75 -11 -100 15 -23 23 -33 45 -19
45 3 0 19 -11 36 -25z m135 0 c26 -11 33 -19 26 -26 -8 -8 -17 -8 -31 0 -11 6
-34 11 -51 11 -50 0 -49 27 2 29 10 1 34 -6 54 -14z m283 -25 c0 -5 -12 -13
-27 -16 -16 -4 -45 -16 -67 -26 -27 -14 -37 -16 -34 -6 5 16 85 58 110 58 10
0 18 -4 18 -10z m-130 -10 c18 -12 17 -12 -40 -14 -25 -1 -56 -6 -69 -10 -17
-6 -21 -5 -16 4 16 26 95 39 125 20z m174 -41 c-18 -17 -45 -32 -67 -36 -46
-7 -50 12 -4 23 17 3 45 17 62 30 40 31 46 20 9 -17z m-344 6 c18 -9 40 -13
55 -9 14 3 25 2 25 -4 0 -12 -24 -22 -51 -22 -28 0 -81 29 -74 40 8 13 11 13
45 -5z m290 11 c0 -2 -7 -7 -16 -10 -8 -3 -12 -2 -9 4 6 10 25 14 25 6z m-145
-16 c3 -5 -1 -10 -9 -10 -9 0 -16 5 -16 10 0 6 4 10 9 10 6 0 13 -4 16 -10z
m76 -19 c-6 -10 -23 -23 -38 -29 -31 -10 -90 -5 -99 9 -6 10 3 11 56 10 19 -1
46 6 60 14 32 19 33 18 21 -4z"/>
<path d="M3166 2264 c-39 -39 3 -206 65 -256 47 -38 129 -55 187 -39 63 17
126 82 146 150 23 77 21 137 -3 151 -12 6 -95 10 -200 10 -150 0 -182 -3 -195
-16z"/>
<path d="M3737 2262 c-22 -24 -21 -56 3 -135 50 -161 222 -217 340 -111 61 56
101 204 65 244 -17 19 -31 20 -205 20 -168 0 -189 -2 -203 -18z"/>
</g>
</svg>
