<?xml version="1.0" encoding="UTF-8"?>
<svg version="1.1" viewBox="0 0 2048 1116" width="677" height="369" xmlns="http://www.w3.org/2000/svg">
<path transform="translate(1093,190)" d="m0 0h17l15 3 15 6 16 11 11 9 7 8 9 10 13 19 12 23 8 19 11 33 6 29 7 50h29l8 2 4 5 1 3v26l-5 9-4 3-1 13-7 22-7 14-12 14-5 4-9 6-2 12 17 2 12 5 15 8 10 9 9 10 11 19 5 11 6 21 4 24 1 10v19l-5 38-6 30-15 47-14 33-8 23-7 10-8 4-4 1h-16l-10-4-11-8-8-11-5-12-3-16-1-16v-67l-2-25-3-21-4 4-5 10-4 11-6 8-13 11-11 15-10 13-8 10-12 14-5 6h-2l-1 3-29 29-11 9-9 8-9 7-7 6-14 10-10 7-13 8-11 7-25 13-16 8-20 8-15 5-25 5-26 3h-35l-25-3-25-5-15-5-13-5-18-3-11-4-8-9-10-20-1-17-3-12 4-8 12-13 5-5 9-13 14-15 17-17 12-9 9-7 12-8 14-10 13-9 11-8 8-6 9-7 11-8 7-6 13-10 12-11 10-8 5-6 10-8 3-6 1-6 2-7 6-7 7-5 10-3 6-10 6-13v-4l-10-4-12 2-16 6-11 6-10 7-11 8-10 9-8 7-7 8-8 9-9 11-13 14-16 11-8 3h-11l-6-3-5-8v-7l9-43 6-21 8-22 10-18 9-12 11-12 12-11 24-15 16-6 22-5 15-2h9l-6-20-5-22-8-12v-30l5-6 7-1h95v-20l-1-33-4-55v-34l2-16 7-21 7-13 11-12 7-6 12-6 11-3z" fill="#0A0908"/>
<path transform="translate(937,658)" d="m0 0 3 1 4 10 2 9 5 10 7 7 7 4 4 9 8 11 8 5 16 6-1 5-11 10-14 11-12 10-32 24-13 9-9 5-21 14-11 6-14 7 9-3 16-8 27-14 17-9 20-13 12-9 14-11 11-8 17-17 5 1 12 5 6 1h13l8 5 10 2h16l7-3 6-2 1 1h18l10-3 13-9 8-7h2l-1 5-7 10h-2l-2 4-7 10h-2l-2 4-2 3h-2l-2 4-3 4h-2l-2 4-5 6-21 21-11 10h-2l-1 3-4 3h-2v2l-5 4h-2v2l-15 11-30 21-12 8-44 22-22 9-22 6-22 4-10 1h-38l-24-3-21-5-15-5-11-5-5-8-3-6v-10l20-5 9-4 6-2-19 2h-18l-9-14-8-16 2-6 9-12 11-12 7-7 8-7 9-9 17-12 15-10 18-13 19-14 11-8 16-12 14-12 12-10 11-9z" fill="#FBCB23"/>
<path transform="translate(1092,204)" d="m0 0h18l15 4 17 9v2l5 2 4 3v2l4 2 18 20 10 15 9 16 9 22 9 26 5 17 4 20 3 19 3 22v5l-1 1h-174l-1-1-1-46-1-27-3-35v-35l3-17 6-15 2-4h2l1-5h2l2-4 8-8 11-7z" fill="#FCEEBB"/>
<path transform="translate(938,421)" d="m0 0h332l1 3-1 21-6 7-5 25-6 16-6 10-14 14-11 6-11 4-12 2h-14l-14-3-11-4-11-8-7-8-5-5-5-8-5-11-10-30-6-3h-12l-8 4-3 6-5 19-6 16-5 8h-2l-2 4-7 7-7 5-14 7-10 3-7 1h-14l-18-4-14-7-8-7-10-13-6-14-4-14-3-17-5-6-3-2z" fill="#1C1C1B"/>
<path transform="translate(1221,559)" d="m0 0h18l14 4 13 8 5 4v2l4 2 8 10 8 14 4 8 3 7 6 26 2 18v17l-2 23-7 34-7 26-12 33-8 20-9 24-3 10-9 4h-7l-9-4-7-6-6-10-4-10-2-19-1-82-3-26-6-23-6-15-6-11-7-9-8-8-14-8-11-4-6-1h-24l-19 4-15 5h-2v-2l8-7 10-7 19-11 19-7 27-6 23-2h15l10 2 10 4 11 8 4 3-2-5-3-1-7-8-9-5-5-2 1-9 3-11z" fill="#FBEDB9"/>
<path transform="translate(993,564)" d="m0 0h6l25 12 6 3v2l4 2 8 7 10 15 5 11 3 12v23l-2 10h2l2-4 10-9 12-9 12-6 17-5 16-2h11l16 3 17 9 6 7 5 5 2 3v3l-4-2h-7l-8 6-4 2-2 5-4 6-3 11-3 2-12 3-6 3-12 10-4 6-18 2-13 5-3 2-4-1-8-3h-28l-8-7 1-5 2-5-7 8-17-4-9-11-8-7-6-4-3-8-5-10-6-7-4-3-2-11-4-12 1-5 10-16 4-12v-8l-5-8-9-5 2-3 17-4z" fill="#FACB23"/>
<path transform="translate(1100,460)" d="m0 0h10l3 7 7 24 6 12 9 11 9 9 5 4 7 4 5 3 15 4h38l-1 8-7 26-2 4-29 1-15 1-20 5-13 4-16 8-14 9-15 12-8 11-1 2h-2l-3-17-5-18-7-14-11-18-10-13-5-6-2-1 1-3 16-5 16-8 9-7 9-10 9-16 11-32z" fill="#FBEDB9"/>
<path transform="translate(1137,427)" d="m0 0h108l7 2 6 9v11l-3 18-6 19-7 13-12 12-10 6-12 4-7 1h-16l-16-4-9-5-10-8-5-5-6-8-6-13-6-19-2-10v-10l4-8 4-4z" fill="#0C0B0B"/>
<path transform="translate(1139,730)" d="m0 0h2l-1 5-7 10h-2l-2 4-7 10h-2l-2 4-2 3h-2l-2 4-3 4h-2l-2 4-5 6-21 21-11 10h-2l-1 3-4 3h-2v2l-5 4h-2v2l-15 11-30 21-12 8-44 22-22 9-22 6-22 4-10 1h-38l-24-3-21-5-15-5-6-3 4-1h42l24-2 24-4 25-6 24-7 22-8 19-9 24-14 11-7 13-9 21-16 6-5h2v-2l9-7 17-17 8-7 11-13 4-5v-2l-8 2-13-1v-1l16-1 7-3 6-2 1 1h18l10-3 13-9z" fill="#DCA11B"/>
<path transform="translate(938,421)" d="m0 0h332l1 3-1 21-6 7-5 25-6 16-6 10-14 14-11 6-11 4-12 2h-14l-14-3-11-4-11-8-7-8-5-5-5-8-5-11-10-30-6-3h-12l-8 4-3 6-5 19-6 16-5 8h-2l-2 4-7 7-7 5-14 7-10 3-7 1h-14l-18-4-14-7-8-7-10-13-6-14-4-14-3-17-5-6-3-2zm26 6-6 2-4 5-1 2v19l3 16 6 17 4 10 6 7 13 9 11 5 13 3h16l11-2 14-7 11-9 7-7 7-12 5-13 3-15v-20l-5-8-6-2zm173 0-5 2-5 6-2 5v10l4 17 6 17 7 13 6 7 8 6 10 7 13 4 6 1h16l11-2 12-5 9-7 9-9 8-16 6-20 2-14v-11l-6-9-7-2z" fill="#F6C725"/>
<path transform="translate(933,515)" d="m0 0h26l8 7 6 5 7 5 19 6 11 1 5 3 16 16v2h2l9 13 4 6-1 2-7-6-2-1v-2l-5-2-23-12-18-6-17-3h-34l-18 3-18 5-12 6-15 10-10 7-6 5-10 14-7 9h-2l-2 4-10 14-11 20h-2l1-9 4-19 8-23 7-14 6-10h2l1-4 2-3h2l1-4h2l2-5 10-10 3-1v-2h3v-2l9-5 13-8 15-6 16-4z" fill="#F9EAB4"/>
<path transform="translate(1126,210)" d="m0 0 5 1 11 6v2l5 2 4 3v2l4 2 18 20 10 15 9 16 9 22 9 26 5 17 4 20 3 19 3 22v5l-1 1h-174v-1l38-1h104v-11l-3-31-4-25-6-27-12-36-5-13-6-15-7-12-6-8-3-3-8-11-5-5z" fill="#E4D187"/>
<path transform="translate(1117,602)" d="m0 0 2 1 27 1 21 5 15 6 10 8 13 16 10 16 5 11 6 20 2 11 1 11v104l1 15 5 19v2l7 2h12l-2 2-3 1h-7l-9-4-7-6-6-10-4-10-2-19-1-82-3-26-6-23-6-15-6-11-7-9-8-8-14-8-11-4-6-1h-24l-19 4-15 5h-2v-2l8-7 10-7z" fill="#E8D385"/>
<path transform="translate(1206,431)" d="m0 0 41 1 1 4-11 15-9 13-11 15-13 18-9 11-5 9h-9l-15-5-10-7-4-6 7-10 11-16 13-16 9-13 7-11z" fill="#6F6F6E"/>
<path transform="translate(1026,431)" d="m0 0 47 1-2 5-13 18-8 10-7 10-11 16-8 11-9 11-2 4h-7l-13-4-11-6-7-6 1-4 12-15 12-17 7-9 16-23z" fill="#6F6F6E"/>
<path transform="translate(937,658)" d="m0 0 3 1 4 10v9l-5 2-13 12-8 7-26 20-20 14-15 10-10 7-30 20-17 12-12 9-14 12-14 14-1 2h-2l-2 4-6 9-4 7h-2l-4-9 2-6 9-12 11-12 7-7 8-7 9-9 17-12 15-10 18-13 19-14 11-8 16-12 14-12 12-10 11-9z" fill="#F9E384"/>
<path transform="translate(944,558)" d="m0 0h23l9 1-2 2-13 5-12 5-21 6-17 9-11 7-11 9-10 9-8 6-11 11-7 10h-2l-2 5-11 12-7 6h-2v2l-4 1v2l-8 5h-4l2-6 8-12 17-26 10-14 8-11 9-10 8-8 13-9 15-8 23-7z" fill="#DBA21D"/>
<path transform="translate(938,421)" d="m0 0h332l1 3-1 2-9-1-10 2-114 1-6 1-3-3-19-1-27 1-4 1-114 1-6 1-1 3h-2l-1 4v19l3 16 6 17 4 10 5 6 13 9 4 2v3l5 1 1 5-4 1-14-7-8-7-10-13-6-14-4-14-3-17-5-6-3-2z" fill="#F4C525"/>
<path transform="translate(1129,626)" d="m0 0h11l16 3 17 9 6 7 5 5 2 3v3l-4-2h-7l-8 6-4 2-2 5-4 6-3 11-3 2-14 3h-5l-1-21-3-10-7-12-7-6-10-7-2-2 11-3z" fill="#DCA11B"/>
<path transform="translate(1079,208)" d="m0 0 4 1-10 13-4 10-5 19-6 21-2 11v21l2 19 1 29 1 56-6 2h-5l-1-46-1-27-3-35v-35l3-17 6-15 2-4h2l1-5h2l2-4 8-8z" fill="#F7F4D4"/>
<path transform="translate(993,564)" d="m0 0h6l25 12 6 3v2l4 2 8 7-1 3-22 6-14 6-18 10-10 5h-2v2l-5 1-1-3 9-14 4-12v-8l-5-8-9-5 2-3 17-4z" fill="#DCA21C"/>
<path transform="translate(1177,431)" d="m0 0h12l-2 5-11 16-10 13-8 11-11 17-4-4-4-8-2-7-4-10-3-13v-8l3-7 3-3 9-1 22 1h3z" fill="#2A2B29"/>
<path transform="translate(1248,433)" d="m0 0 3 4 1 3v17l-4 16-5 12-6 11-9 10-8 5-13 6-4 1h-19v-1l6-1 6-11 8-9 20-28 11-15 7-10 5-7z" fill="#2A2B29"/>
<path transform="translate(1261,424)" d="m0 0 7 1 2 1v19l-6 7-5 25-6 16-6 10-14 14-11 6-11 4-12 2h-14l-14-3-11-4-11-8-7-8-5-5-3-4 1-3 5-2 6 8 5 5 12 9 9 4 13 3h16l11-2 12-5 9-7 8-8 8-16 6-20 2-14v-11l-5-8-7-2v-1z" fill="#F4C425"/>
<path transform="translate(897,525)" d="m0 0h5l-3 5-19 13-11 9-11 16-4 7-3 16-1 6h-2v5l-5 6h-2l-2 4-10 14-11 20h-2l1-9 4-19 8-23 7-14 6-10h2l1-4 2-3h2l1-4h2l2-5 10-10 3-1v-2h3v-2l9-5 13-8z" fill="#F9F5D5"/>
<path transform="translate(1171,538)" d="m0 0h43l-1 8-7 26-2 4-39 1 4-16 5-18v-3z" fill="#E5D287"/>
<path transform="translate(975,422)" d="m0 0h296l-1 4-9-1-10 2-114 1-6 1-3-3-19-1-27 1-4 1h-16l-25-1-54-1-9-1z" fill="#FAE484"/>
<path transform="translate(1177,431)" d="m0 0h12l-2 5-11 16-10 13-8 11-11 17-4-4-4-8 1-5 12-15 13-19 7-10z" fill="#6F6F6E"/>
<path transform="translate(999,431)" d="m0 0h13l-2 5-11 18-11 13-14 19-4 6h-2l-4-12v-5l10-13 16-21 6-9z" fill="#6F6F6E"/>
<path transform="translate(989,431)" d="m0 0 7 1-2 5-14 18-15 20h-2l-4-13-2-16 2-10 4-3 9-1h10z" fill="#2A2B29"/>
<path transform="translate(938,421)" d="m0 0h332v1l-295 1 8 1 54 1 25 1v1l-98 1-7 1-5-2-9 2v10l2 10-4-2-3-2z" fill="#E8C45B"/>
<path transform="translate(729,837)" d="m0 0h2l10 18 5 8 1 3 1 14 2 9-3 1-6-3-7-10-6-12-2-17v-9z" fill="#2A2B29"/>
<path transform="translate(981,807)" d="m0 0 3 1-1 5-5 5h-2v2l-8 5-2 3h-3v2l-11 6-14 6-10 1v-4l10-6 21-12h2v-2l17-10z" fill="#DDA21B"/>
<path transform="translate(897,738)" d="m0 0 4 1 1 2v6l-5 5-11 9-11 5h-7l-1-5 9-8 18-14z" fill="#FEE886"/>
<path transform="translate(1015,431)" d="m0 0h6v3 3l-11 16-8 11-4 4h-2l-11 14-9 12-2 4h-2l-4-6 6-6h3l18-24 10-13 8-13z" fill="#282927"/>
<path transform="translate(1176,422)" d="m0 0h95l-1 4-9-1-10 2h-18l-47-1-18-2v-1z" fill="#FDE681"/>
<path transform="translate(1146,690)" d="m0 0h6v7l-15 9-7 7-4 6h-2l-2 4h-2v2h-3l1-10 7-10 7-7z" fill="#D9A11F"/>
<path transform="translate(972,701)" d="m0 0h8l6 7v2l5 2 4 3 3 1 16 1-1 4-5 3h-15l-8-4-6-5-7-11z" fill="#F2C226"/>
<path transform="translate(1008,704)" d="m0 0h11l12 5 8 4v4l-5 3-5-1-7-3-22-3-2-1 1-5z" fill="#EEC22B"/>
<path transform="translate(1088,732)" d="m0 0 4 1-6 9-6 5-8 2h-14l-9-3-3-4 7-4 4 1h18l7-3z" fill="#ECBE29"/>
<path transform="translate(1170,689)" d="m0 0 3 3v8l-3 8-5 6-5 4h-2v2l-11 4-7 1v-6l2-2 7-2 8-6 7-9 5-10z" fill="#F2C123"/>
<path transform="translate(1176,659)" d="m0 0 5 1-1 6-9 10-1 3h-2l-3 9-5 12-4-1v-9l3-11 5-9 9-10z" fill="#DAA21F"/>
<path transform="translate(1010,726)" d="m0 0 6 1 8 4 4 1h13l5-2h4l-1 4-7 6-6 2h-10l-10-4-9-7v-3z" fill="#EEC12D"/>
<path transform="translate(1132,718)" d="m0 0h2l-1 7-2 5h-2l-2 4-5 4-10 5-10 2-9-1 1-4 1-3 2-1 15-2 11-7 6-5z" fill="#F2C123"/>
<path transform="translate(1107,713)" d="m0 0h6v6l-1 2-22 6-14 8h-3l1-5 5-6 12-7z" fill="#EFC126"/>
<path transform="translate(1056,716)" d="m0 0h10l10 3 1 2-4 4-24 1-14 3h-2v-4l9-5z" fill="#E9BD2E"/>
<path transform="translate(970,680)" d="m0 0h12l14 6 8 6 3 5-1 4-5 1-8-7-10-6-12-4-2-4z" fill="#ECC02E"/>
<path transform="translate(949,669)" d="m0 0 8 1 2 2 3 8 3 4v2l9 3 8 3v3l-3 1h-9l-8-4-6-5-6-12z" fill="#F0C22B"/>
<path transform="translate(1192,431)" d="m0 0h5 2 7v1l-7 2-2 2h-2l-7 10-12 16-2 4-5 5-12 17-5 9-4-1-1-5 3-3v2l4-3 5-9 6-8 11-14 8-11 6-10z" fill="#2A2B29"/>
<path transform="translate(945,632)" d="m0 0h3l1 15 6 10 6 5 3 2v2h-8l-8-3-6-10-2-7 1-8z" fill="#EFC12A"/>
<path transform="translate(956,650)" d="m0 0 10 1 8 5 8 11 2 5-1 4-7-1-10-13-10-10z" fill="#ECC233"/>
<path transform="translate(1189,431)" d="m0 0 2 1-1 5-12 18-10 12-6 8-6 9-3 5-3 1 1-5 13-19 9-11 15-22z" fill="#0B0A0A"/>
<path transform="translate(1050,671)" d="m0 0h2l-2 6-16 24-3 3-9-2v-3l13-10 7-7z" fill="#F7DF7E"/>
<path transform="translate(975,422)" d="m0 0h71l2 2-10 1h-55l-9-1z" fill="#FDEFBC"/>
<path transform="translate(1196,434)" d="m0 0 1 3-6 10-8 11-13 16-10 15-2-4 11-15 3-4h2l1-4 10-13 10-14z" fill="#0C0C0B"/>
<path transform="translate(1040,536)" d="m0 0h6l-4 10 3 13v3l-10-13-5-6-2-1 1-3z" fill="#F9F4CF"/>
<path transform="translate(1176,422)" d="m0 0h44l5 1-4 2-8 1h-27l-18-2v-1z" fill="#FDEFBC"/>
<path transform="translate(966,760)" d="m0 0h2l-1 3-32 24-15 11-8 4-2-1 11-7 13-10 10-8 11-8z" fill="#E9D280"/>
<path transform="translate(1122,466)" d="m0 0h2l3 11 4-2 4 7 4 8-1 4-5 1-6-13-5-14z" fill="#F6DB74"/>
<path transform="translate(969,509)" d="m0 0h2v2l4 2h5l2-2 7 4v3l5 1 1 5-4 1-14-7-8-7z" fill="#D69F1F"/>
<path transform="translate(958,628)" d="m0 0h5l3 7 1 12h-5l-5-12-1-6z" fill="#F4C325"/>
<path transform="translate(1170,689)" d="m0 0 3 3v8l-2 6-4 1-2 2h-7l7-11 4-8z" fill="#D69E20"/>
<path transform="translate(972,702)" d="m0 0h6v2l4 1 4 8-1 5-4-1-8-11z" fill="#F4DC7C"/>
<path transform="translate(997,466)" d="m0 0 1 3-12 17-10 12-1-4 20-26z" fill="#0D0D0C"/>
<path transform="translate(1107,713)" d="m0 0h6v6l-1 2-6 1-3-1-3-3-5-1 2-2z" fill="#D59F21"/>
<path transform="translate(1152,713)" d="m0 0 3 1-1 5-3 3-4 2-7 1v-6l2-2 7-2z" fill="#D49E21"/>
<path transform="translate(969,621)" d="m0 0 1 2 7-2 1 6-5 4-1 6-3-4-2-9z" fill="#F8E07F"/>
<path transform="translate(820,622)" d="m0 0 2 3v5l4 2-8 14h-2l1-9z" fill="#EAD490"/>
<path transform="translate(1108,735)" d="m0 0 4 1-3 1-4 4-7 1-1 1 5 1v1l-9-1 1-4 1-3 2-1z" fill="#D29D23"/>
<path transform="translate(992,464)" d="m0 0v3l-14 19-4 2 1-5 12-16 4-2z" fill="#0A0909"/>
<path transform="translate(1050,671)" d="m0 0h2l-2 6-10 15-1 2h-3l2-5 4-7z" fill="#F3E08F"/>
<path transform="translate(1e3 717)" d="m0 0h14l-1 4-2 2-4-1-3-1-3 1v-2l-2-1z" fill="#DEC875"/>
<path transform="translate(1171,469)" d="m0 0h2l-2 4-11 16-2-4 9-12z" fill="#0F0F0E"/>
<path transform="translate(885,818)" d="m0 0 2 1-1 3-16 8-5 2-3-1 22-12z" fill="#323331"/>
<path transform="translate(937,782)" d="m0 0 1 3-11 8-11 7-6 2 3-3 11-7z" fill="#E4CE82"/>
<path transform="translate(1057,729)" d="m0 0h7l4 2-1 4h-8l-3-3z" fill="#EFBF2D"/>
<path transform="translate(1161,473)" d="m0 0 1 2-6 9-3 5-3 1 1-5 7-10z" fill="#0A0909"/>
<path transform="translate(970,680)" d="m0 0h12v2h-5l1 4-7-1-2-4z" fill="#EFD36D"/>
<path transform="translate(1097,615)" d="m0 0 3 1-1 4-5 1-1 3-7 2v-2l8-7z" fill="#EBD37D"/>
<path transform="translate(1106,726)" d="m0 0h6l-1 3-7 2h-6l1-3z" fill="#D69F20"/>
<path transform="translate(943,635)" d="m0 0h2l-2 9h2v4h-2v2h-2l-1-8z" fill="#E5D07C"/>
<path transform="translate(789,857)" d="m0 0h5l-1 2-8 3-11-2v-1z" fill="#3D3E3C"/>
<path transform="translate(1264,826)" d="m0 0 1 2-7 21-3 1 3-9 5-14z" fill="#DEBB5C"/>
<path transform="translate(743,827)" d="m0 0 3 1 1 4-4 3h-2v-7z" fill="#FBEBB4"/>
<path transform="translate(987,699)" d="m0 0 5 1 2 2-1 4h-3l-3-5z" fill="#F3CC4E"/>
<path transform="translate(1150,704)" d="m0 0h3l-1 3-8 4-2-1 3-3z" fill="#DBAD30"/>
<path transform="translate(845,644)" d="m0 0 1 3-8 8-3-1z" fill="#D1B039"/>
<path transform="translate(1057,729)" d="m0 0h7l-3 6-4-2z" fill="#C3B06F"/>
<path transform="translate(924,792)" d="m0 0v3l-10 6-4 1 3-3z" fill="#EED171"/>
<path transform="translate(981,488)" d="m0 0h2l-2 4-5 6-1-4z" fill="#121111"/>
<path transform="translate(1007,451)" d="m0 0h1v5l-5 5-2 1 2-5z" fill="#0D0D0C"/>
</svg>
